<?xml version="1.0" encoding="UTF-8"?>
<svg xmlns="http://www.w3.org/2000/svg" xmlns:xlink="http://www.w3.org/1999/xlink" width="40" height="40" viewBox="0 0 40 40" version="1.1">
<g id="surface1">
<path style=" stroke:none;fill-rule:evenodd;fill:rgb(0%,80.000001%,100%);fill-opacity:1;" d="M 0.621094 8.804688 L 39.378906 8.804688 L 39.378906 4.742188 L 0.621094 4.742188 Z M 0.621094 8.804688 "/>
<path style=" stroke:none;fill-rule:evenodd;fill:rgb(99.607843%,0%,0%);fill-opacity:1;" d="M 0.621094 4.742188 L 39.421875 4.742188 L 39.421875 0.417969 L 0.667969 0.417969 L 0.667969 4.742188 Z M 39.421875 8.804688 L 0.621094 8.804688 L 0.621094 25.546875 C 0.710938 26.710938 0.800781 27.839844 1.199219 29 C 1.554688 30.160156 2.222656 31.289062 3.066406 32.355469 C 3.867188 33.417969 4.890625 34.386719 5.957031 35.195312 C 7.023438 36 8.222656 36.675781 9.601562 37.324219 C 11.023438 37.96875 12.710938 38.613281 14.488281 39 C 17.957031 39.742188 22.179688 39.742188 25.644531 39 C 27.421875 38.613281 29.109375 37.96875 30.535156 37.324219 C 31.957031 36.675781 33.109375 36 34.179688 35.195312 C 35.246094 34.386719 36.222656 33.417969 37.066406 32.355469 C 37.867188 31.289062 38.535156 30.160156 38.933594 29 C 39.289062 27.839844 39.421875 26.710938 39.511719 25.546875 L 39.511719 8.804688 Z M 1.867188 24.066406 L 20.042969 9.644531 L 38.222656 24.066406 L 20.042969 38.546875 Z M 1.867188 24.066406 "/>
<path style="fill:none;stroke-width:25.99;stroke-linecap:butt;stroke-linejoin:miter;stroke:rgb(100%,80.000001%,0%);stroke-opacity:1;stroke-miterlimit:4;" d="M 323.96484 1209 C 283.974604 1197.011719 246.005853 1177.03125 214.013665 1157.050781 C 182.021476 1136.949219 156.00585 1116 132.011709 1091.054688 C 108.017568 1065.988281 85.95702 1035.957031 66.972644 1003.019531 C 49.042956 969.960938 34.013659 934.964844 24.960924 899 C 16.962877 863.035156 13.974596 828.039062 12.041002 791.953125 L 13.007799 12.957031 L 884.970717 12.957031 L 886.025404 791.953125 C 884.00392 828.039062 881.982435 863.035156 873.017591 899 C 865.019544 934.964844 849.990247 969.960938 831.005871 1003.019531 C 812.988292 1035.957031 789.960948 1065.988281 765.966807 1091.054688 C 741.972665 1116 714.990243 1136.949219 683.964851 1157.050781 C 651.972662 1177.03125 614.003911 1197.011719 574.013676 1209 C 495.966798 1232.007812 400.95703 1232.007812 322.998043 1209 Z M 323.96484 1209 " transform="matrix(0.0444444,0,0,0.0322581,0.000000615274,0)"/>
<path style="fill-rule:evenodd;fill:rgb(100%,100%,100%);fill-opacity:1;stroke-width:20;stroke-linecap:butt;stroke-linejoin:miter;stroke:rgb(100%,80.000001%,0%);stroke-opacity:1;stroke-miterlimit:4;" d="M 450 1194.953125 L 40.957019 746.058594 L 450 298.980469 L 859.042981 746.058594 Z M 450 1194.953125 " transform="matrix(0.0444444,0,0,0.0322581,0.000000615274,0)"/>
<path style="fill:none;stroke-width:20;stroke-linecap:butt;stroke-linejoin:miter;stroke:rgb(100%,80.000001%,0%);stroke-opacity:1;stroke-miterlimit:4;" d="M 886.025404 272.945312 L 13.007799 272.945312 M 13.007799 147.007812 L 886.025404 147.007812 " transform="matrix(0.0444444,0,0,0.0322581,0.000000615274,0)"/>
<path style=" stroke:none;fill-rule:evenodd;fill:rgb(99.607843%,0%,0%);fill-opacity:1;" d="M 21.601562 17.710938 L 21.644531 16.484375 C 21.109375 16.417969 20.578125 16.386719 20 16.386719 C 19.820312 16.386719 19.644531 16.386719 19.511719 16.386719 L 19.421875 17.613281 C 19.601562 17.613281 19.820312 17.613281 20 17.613281 C 20.535156 17.613281 21.066406 17.644531 21.554688 17.710938 Z M 21.601562 17.710938 "/>
<path style=" stroke:none;fill-rule:evenodd;fill:rgb(99.607843%,0%,0%);fill-opacity:1;" d="M 17.777344 17.804688 L 17.109375 16.644531 C 16.3125 16.804688 15.554688 17.03125 14.84375 17.289062 L 15.511719 18.417969 C 16.222656 18.128906 16.933594 17.933594 17.734375 17.773438 Z M 17.777344 17.804688 "/>
<path style=" stroke:none;fill-rule:evenodd;fill:rgb(99.607843%,0%,0%);fill-opacity:1;" d="M 14.265625 19.097656 L 13.023438 18.257812 C 12.445312 18.613281 11.957031 19 11.511719 19.417969 L 12.753906 20.257812 C 13.199219 19.839844 13.734375 19.453125 14.3125 19.097656 Z M 14.265625 19.097656 "/>
<path style=" stroke:none;fill-rule:evenodd;fill:rgb(99.607843%,0%,0%);fill-opacity:1;" d="M 11.109375 22.742188 C 11.289062 22.226562 11.511719 21.742188 11.820312 21.257812 L 10.222656 20.839844 C 9.910156 21.289062 9.6875 21.804688 9.511719 22.324219 Z M 11.109375 22.742188 "/>
<path style=" stroke:none;fill-rule:evenodd;fill:rgb(99.607843%,0%,0%);fill-opacity:1;" d="M 11.023438 25.257812 C 10.933594 24.902344 10.890625 24.546875 10.890625 24.195312 C 10.890625 24 10.890625 23.804688 10.933594 23.644531 L 9.199219 23.710938 C 9.199219 23.871094 9.15625 24.03125 9.15625 24.226562 C 9.15625 24.613281 9.199219 24.96875 9.246094 25.324219 L 10.976562 25.289062 Z M 11.023438 25.257812 "/>
<path style=" stroke:none;fill-rule:evenodd;fill:rgb(99.607843%,0%,0%);fill-opacity:1;" d="M 12.265625 27.613281 C 11.867188 27.160156 11.554688 26.644531 11.332031 26.128906 L 9.777344 26.644531 C 10 27.160156 10.3125 27.644531 10.710938 28.128906 Z M 12.265625 27.613281 "/>
<path style=" stroke:none;fill-rule:evenodd;fill:rgb(99.607843%,0%,0%);fill-opacity:1;" d="M 14.488281 29.417969 C 13.910156 29.097656 13.378906 28.742188 12.933594 28.324219 L 11.734375 29.195312 C 12.179688 29.582031 12.710938 29.96875 13.289062 30.289062 Z M 14.488281 29.417969 "/>
<path style=" stroke:none;fill-rule:evenodd;fill:rgb(99.607843%,0%,0%);fill-opacity:1;" d="M 17.644531 30.515625 C 16.890625 30.355469 16.132812 30.160156 15.464844 29.871094 L 14.800781 31 C 15.464844 31.289062 16.222656 31.484375 16.976562 31.644531 Z M 17.644531 30.515625 "/>
<path style=" stroke:none;fill-rule:evenodd;fill:rgb(99.607843%,0%,0%);fill-opacity:1;" d="M 20.976562 30.710938 C 20.667969 30.742188 20.355469 30.742188 20.042969 30.742188 C 19.601562 30.742188 19.15625 30.710938 18.710938 30.675781 L 18.621094 31.902344 C 19.066406 31.933594 19.554688 31.96875 20.042969 31.96875 C 20.355469 31.96875 20.621094 31.96875 20.933594 31.933594 Z M 20.976562 30.710938 "/>
<path style=" stroke:none;fill-rule:evenodd;fill:rgb(99.607843%,0%,0%);fill-opacity:1;" d="M 24.3125 30 C 23.6875 30.226562 23.023438 30.417969 22.3125 30.546875 L 22.933594 31.710938 C 23.644531 31.582031 24.3125 31.386719 24.933594 31.160156 Z M 24.3125 30 "/>
<path style=" stroke:none;fill-rule:evenodd;fill:rgb(99.607843%,0%,0%);fill-opacity:1;" d="M 27.066406 28.386719 C 26.578125 28.804688 26 29.195312 25.378906 29.515625 L 26.535156 30.417969 C 27.199219 30.066406 27.777344 29.675781 28.3125 29.226562 L 27.109375 28.355469 Z M 27.066406 28.386719 "/>
<path style=" stroke:none;fill-rule:evenodd;fill:rgb(99.607843%,0%,0%);fill-opacity:1;" d="M 28.667969 26.289062 C 28.398438 26.804688 28.089844 27.324219 27.6875 27.773438 L 29.246094 28.324219 C 29.644531 27.871094 30 27.355469 30.265625 26.839844 L 28.710938 26.289062 Z M 28.667969 26.289062 "/>
<path style=" stroke:none;fill-rule:evenodd;fill:rgb(99.607843%,0%,0%);fill-opacity:1;" d="M 30.84375 23.933594 L 29.109375 23.839844 C 29.109375 23.933594 29.109375 24.066406 29.109375 24.160156 C 29.109375 24.613281 29.066406 25.066406 28.933594 25.484375 L 30.667969 25.582031 C 30.800781 25.128906 30.84375 24.644531 30.84375 24.160156 C 30.84375 24.066406 30.84375 24 30.84375 23.933594 Z M 30.84375 23.933594 "/>
<path style=" stroke:none;fill-rule:evenodd;fill:rgb(99.607843%,0%,0%);fill-opacity:1;" d="M 29.957031 21.03125 L 28.3125 21.417969 C 28.621094 21.902344 28.890625 22.453125 29.023438 23 L 30.667969 22.613281 C 30.488281 22.066406 30.265625 21.546875 29.957031 21.03125 Z M 29.957031 21.03125 "/>
<path style=" stroke:none;fill-rule:evenodd;fill:rgb(99.607843%,0%,0%);fill-opacity:1;" d="M 25.109375 18.710938 L 25.867188 17.613281 C 25.199219 17.324219 24.535156 17.066406 23.777344 16.871094 L 23.023438 18 C 23.777344 18.195312 24.488281 18.453125 25.109375 18.742188 Z M 25.109375 18.710938 "/>
<path style=" stroke:none;fill-rule:evenodd;fill:rgb(99.607843%,0%,0%);fill-opacity:1;" d="M 27.464844 18.515625 L 26.222656 19.355469 C 26.753906 19.710938 27.246094 20.128906 27.6875 20.582031 L 29.023438 19.804688 C 28.578125 19.324219 28.042969 18.902344 27.464844 18.484375 Z M 27.464844 18.515625 "/>
<path style="fill:none;stroke-width:16;stroke-linecap:butt;stroke-linejoin:miter;stroke:rgb(99.607843%,0%,0%);stroke-opacity:1;stroke-miterlimit:4;" d="M 656.015631 750.054688 C 656.015631 862.671875 564.257816 953.976562 450.966797 953.976562 C 337.763668 953.976562 246.005853 862.671875 246.005853 750.054688 C 246.005853 637.316406 337.763668 546.011719 450.966797 546.011719 C 564.257816 546.011719 656.015631 637.316406 656.015631 750.054688 Z M 656.015631 750.054688 " transform="matrix(0.0444444,0,0,0.0322581,0.000000615274,0)"/>
<path style="fill:none;stroke-width:15;stroke-linecap:butt;stroke-linejoin:miter;stroke:rgb(99.607843%,0%,0%);stroke-opacity:1;stroke-miterlimit:4;" d="M 450 585.972656 L 452.021484 914.015625 " transform="matrix(0.0444444,0,0,0.0322581,0.000000615274,0)"/>
<path style="fill:none;stroke-width:15;stroke-linecap:butt;stroke-linejoin:miter;stroke:rgb(99.607843%,0%,0%);stroke-opacity:1;stroke-miterlimit:4;" d="M 282.04101 744.96875 L 619.013677 744.96875 " transform="matrix(0.0444444,0,0,0.0322581,0.000000615274,0)"/>
<path style="fill:none;stroke-width:7.62;stroke-linecap:butt;stroke-linejoin:miter;stroke:rgb(99.607843%,0%,0%);stroke-opacity:1;stroke-miterlimit:4;" d="M 375.029295 646.035156 L 526.025393 646.035156 " transform="matrix(0.0444444,0,0,0.0322581,0.000000615274,0)"/>
<path style="fill:none;stroke-width:7.62;stroke-linecap:butt;stroke-linejoin:miter;stroke:rgb(99.607843%,0%,0%);stroke-opacity:1;stroke-miterlimit:4;" d="M 383.994139 849.957031 L 516.972658 849.957031 " transform="matrix(0.0444444,0,0,0.0322581,0.000000615274,0)"/>
<path style="fill:none;stroke-width:7.62;stroke-linecap:butt;stroke-linejoin:miter;stroke:rgb(99.607843%,0%,0%);stroke-opacity:1;stroke-miterlimit:4;" d="M 336.972653 801.035156 L 566.015629 801.035156 " transform="matrix(0.0444444,0,0,0.0322581,0.000000615274,0)"/>
<path style="fill:none;stroke-width:7.62;stroke-linecap:butt;stroke-linejoin:miter;stroke:rgb(99.607843%,0%,0%);stroke-opacity:1;stroke-miterlimit:4;" d="M 333.017575 697.984375 L 568.037113 697.984375 " transform="matrix(0.0444444,0,0,0.0322581,0.000000615274,0)"/>
<path style="fill:none;stroke-width:7.62;stroke-linecap:butt;stroke-linejoin:miter;stroke:rgb(99.607843%,0%,0%);stroke-opacity:1;stroke-miterlimit:4;" d="M 450 646.035156 C 436.992187 651.96875 423.984374 657.054688 415.986327 674.007812 C 407.021483 689.992188 402.978514 717.964844 402.978514 747.027344 C 402.978514 775.96875 407.021483 806.96875 415.986327 824.042969 C 425.039062 841.964844 437.958984 845.960938 452.021484 849.957031 " transform="matrix(0.0444444,0,0,0.0322581,0.000000615274,0)"/>
<path style="fill:none;stroke-width:7.62;stroke-linecap:butt;stroke-linejoin:miter;stroke:rgb(99.607843%,0%,0%);stroke-opacity:1;stroke-miterlimit:4;" d="M 454.042969 646.035156 C 466.962891 651.96875 479.970704 657.054688 487.968751 674.007812 C 497.021486 689.992188 500.976564 717.964844 500.976564 747.027344 C 500.976564 775.96875 497.021486 806.96875 487.968751 824.042969 C 479.003907 841.964844 465.996094 845.960938 452.021484 849.957031 " transform="matrix(0.0444444,0,0,0.0322581,0.000000615274,0)"/>
<path style="fill:none;stroke-width:7.62;stroke-linecap:butt;stroke-linejoin:miter;stroke:rgb(99.607843%,0%,0%);stroke-opacity:1;stroke-miterlimit:4;" d="M 450.966797 849.957031 C 434.970703 848.988281 418.974608 848.019531 404.999999 839.058594 C 391.025389 829.976562 378.984373 813.992188 370.986326 798.007812 C 362.988279 781.054688 359.999997 763.980469 359.999997 747.027344 C 359.999997 729.953125 362.988279 713.96875 370.986326 697.984375 C 378.984373 682 394.01367 666.015625 407.021483 657.054688 C 420.996093 647.972656 434.970703 647.003906 447.978516 646.035156 " transform="matrix(0.0444444,0,0,0.0322581,0.000000615274,0)"/>
<path style="fill:none;stroke-width:7.62;stroke-linecap:butt;stroke-linejoin:miter;stroke:rgb(99.607843%,0%,0%);stroke-opacity:1;stroke-miterlimit:4;" d="M 452.021484 849.957031 C 468.017579 848.988281 484.013673 848.019531 497.988283 839.058594 C 511.962893 829.976562 524.003909 813.992188 532.001956 798.007812 C 540.000003 781.054688 542.988284 763.980469 542.988284 747.027344 C 542.988284 729.953125 540.000003 713.96875 532.001956 697.984375 C 524.003909 682 508.974611 666.015625 495.966798 657.054688 C 481.992188 647.972656 468.017579 647.003906 455.009766 646.035156 " transform="matrix(0.0444444,0,0,0.0322581,0.000000615274,0)"/>
<path style="fill:none;stroke-width:7.62;stroke-linecap:butt;stroke-linejoin:miter;stroke:rgb(99.607843%,0%,0%);stroke-opacity:1;stroke-miterlimit:4;" d="M 450 585.972656 L 452.021484 914.015625 " transform="matrix(0.0444444,0,0,0.0322581,0.000000615274,0)"/>
<path style="fill:none;stroke-width:7.62;stroke-linecap:butt;stroke-linejoin:miter;stroke:rgb(99.607843%,0%,0%);stroke-opacity:1;stroke-miterlimit:4;" d="M 282.04101 744.96875 L 619.013677 744.96875 " transform="matrix(0.0444444,0,0,0.0322581,0.000000615274,0)"/>
<path style="fill:none;stroke-width:50;stroke-linecap:butt;stroke-linejoin:miter;stroke:rgb(84.313726%,16.862746%,9.019608%);stroke-opacity:1;stroke-miterlimit:4;" d="M 351.035153 669.042969 L 545.009769 828.039062 " transform="matrix(0.0444444,0,0,0.0322581,0.000000615274,0)"/>
<path style="fill:none;stroke-width:25;stroke-linecap:butt;stroke-linejoin:miter;stroke:rgb(99.607843%,0%,0%);stroke-opacity:1;stroke-miterlimit:4;" d="M 351.035153 669.042969 L 545.009769 828.039062 " transform="matrix(0.0444444,0,0,0.0322581,0.000000615274,0)"/>
<path style="fill:none;stroke-width:7.62;stroke-linecap:butt;stroke-linejoin:miter;stroke:rgb(99.607843%,0%,0%);stroke-opacity:1;stroke-miterlimit:4;" d="M 577.001957 744.96875 C 577.001957 812.902344 520.136721 868 450 868 C 379.863279 868 322.998043 812.902344 322.998043 744.96875 C 322.998043 677.035156 379.863279 622.058594 450 622.058594 C 520.136721 622.058594 577.001957 677.035156 577.001957 744.96875 Z M 577.001957 744.96875 " transform="matrix(0.0444444,0,0,0.0322581,0.000000615274,0)"/>
<path style=" stroke:none;fill-rule:evenodd;fill:rgb(99.607843%,0%,0%);fill-opacity:1;" d="M 11.332031 24.066406 L 13.6875 25.226562 L 13.6875 22.839844 Z M 11.332031 24.066406 "/>
<path style=" stroke:none;fill-rule:evenodd;fill:rgb(99.607843%,0%,0%);fill-opacity:1;" d="M 28.710938 24.066406 L 26.355469 25.226562 L 26.355469 22.839844 Z M 28.710938 24.066406 "/>
<path style=" stroke:none;fill-rule:evenodd;fill:rgb(99.607843%,0%,0%);fill-opacity:1;" d="M 20 18.03125 L 21.644531 19.742188 L 18.3125 19.742188 Z M 20 18.03125 "/>
<path style=" stroke:none;fill-rule:evenodd;fill:rgb(99.607843%,0%,0%);fill-opacity:1;" d="M 20.042969 30.324219 L 18.398438 28.613281 L 21.734375 28.613281 Z M 20.042969 30.324219 "/>
<path style=" stroke:none;fill-rule:evenodd;fill:rgb(99.607843%,99.607843%,99.607843%);fill-opacity:1;" d="M 31.246094 2.453125 C 31.199219 2.453125 31.246094 2.453125 31.199219 2.417969 C 31.15625 2.386719 31.066406 2.324219 30.890625 2.257812 C 30.753906 2.195312 30.621094 2.160156 30.445312 2.128906 C 28.933594 1.773438 27.15625 2.417969 26.488281 3.484375 C 25.644531 4.839844 26.445312 6.453125 28.179688 7.03125 C 29.066406 7.324219 30.265625 7.355469 31.066406 6.902344 C 31.199219 6.839844 31.289062 6.773438 31.421875 6.710938 C 31.554688 6.644531 31.644531 6.515625 31.734375 6.484375 L 31.734375 7.128906 L 33.15625 7.128906 L 33.15625 5.289062 L 33.777344 5.289062 L 33.777344 4.386719 L 30.355469 4.386719 L 30.355469 5.289062 L 31.199219 5.289062 C 31.109375 5.546875 30.753906 5.804688 30.488281 5.902344 C 29.6875 6.257812 28 6 27.957031 4.675781 C 27.867188 3.195312 29.957031 2.839844 30.84375 3.515625 C 31.023438 3.644531 31.066406 3.839844 31.15625 3.839844 L 32.800781 3.839844 L 32.800781 2.128906 L 31.246094 2.128906 L 31.246094 2.484375 C 31.199219 2.453125 31.199219 2.453125 31.15625 2.417969 Z M 31.246094 2.453125 "/>
<path style=" stroke:none;fill-rule:evenodd;fill:rgb(99.607843%,99.607843%,99.607843%);fill-opacity:1;" d="M 12.089844 5.160156 C 12 5.386719 11.867188 5.613281 11.644531 5.773438 C 11.511719 5.871094 11.554688 5.871094 11.199219 6 C 10.753906 6.160156 10 6.195312 9.464844 6.195312 C 9.421875 6 9.464844 3.226562 9.464844 3.160156 C 9.601562 3.160156 10.179688 3.128906 10.265625 3.160156 C 10.578125 3.128906 10.976562 3.257812 11.246094 3.324219 C 11.820312 3.515625 12.089844 3.933594 12.132812 4.386719 C 12.222656 4.839844 12.089844 4.902344 12.089844 5.160156 Z M 7.023438 3.128906 L 7.6875 3.128906 L 7.6875 6.195312 C 7.554688 6.195312 7.109375 6.195312 7.023438 6.195312 L 7.023438 7.160156 C 7.199219 7.195312 9.246094 7.160156 9.601562 7.160156 C 10.710938 7.160156 11.957031 7.195312 12.800781 6.644531 C 12.976562 6.515625 12.84375 6.644531 13.023438 6.484375 C 13.109375 6.417969 13.066406 6.484375 13.199219 6.386719 L 13.421875 6.160156 C 14.179688 5.386719 14.132812 3.871094 13.421875 3.195312 C 13.15625 2.933594 13.199219 2.933594 12.800781 2.710938 C 12.753906 2.675781 12.753906 2.675781 12.710938 2.675781 C 12.488281 2.546875 12.222656 2.417969 11.957031 2.355469 C 11.199219 2.160156 10.398438 2.195312 9.554688 2.195312 C 9.15625 2.195312 7.15625 2.160156 6.933594 2.195312 L 6.933594 3.160156 Z M 7.023438 3.128906 "/>
<path style=" stroke:none;fill-rule:evenodd;fill:rgb(99.607843%,99.607843%,99.607843%);fill-opacity:1;" d="M 18.84375 5.066406 C 19.289062 5.195312 19.867188 5.226562 20.355469 5.289062 C 20.488281 5.324219 20.578125 5.324219 20.710938 5.355469 C 21.109375 5.484375 21.199219 5.742188 21.023438 5.96875 C 20.800781 6.226562 20.132812 6.257812 19.6875 6.066406 C 19.332031 5.902344 19.023438 5.675781 18.800781 5.417969 L 17.246094 5.417969 L 17.246094 7.097656 L 18.710938 7.097656 L 18.667969 6.582031 C 18.753906 6.644531 18.933594 6.804688 19.289062 6.96875 C 20.132812 7.324219 21.246094 7.324219 22 6.96875 C 22.753906 6.613281 23.109375 5.871094 22.890625 5.226562 C 22.800781 4.902344 22.667969 4.871094 22.535156 4.675781 C 22.445312 4.644531 22.355469 4.546875 22.265625 4.484375 C 21.332031 3.933594 20 4.03125 19.378906 3.773438 C 18.800781 3.515625 19.109375 2.933594 19.910156 3 C 20.265625 3.03125 20.488281 3.160156 20.667969 3.257812 C 20.753906 3.324219 20.84375 3.386719 20.933594 3.484375 C 20.976562 3.515625 21.109375 3.675781 21.15625 3.710938 L 22.578125 3.710938 L 22.578125 2.160156 L 21.15625 2.160156 L 21.15625 2.613281 C 21.109375 2.582031 21.023438 2.515625 20.976562 2.484375 C 20.84375 2.386719 20.578125 2.257812 20.398438 2.195312 C 19.464844 1.871094 18.179688 2.128906 17.601562 2.773438 C 17.246094 3.160156 17.109375 3.773438 17.421875 4.289062 C 17.554688 4.515625 17.777344 4.675781 18 4.804688 C 18.179688 4.902344 18.578125 5.066406 18.890625 5.097656 Z M 18.84375 5.066406 "/>
</g>
</svg>
