<?xml version="1.0" encoding="UTF-8"?>
<svg xmlns="http://www.w3.org/2000/svg" xmlns:xlink="http://www.w3.org/1999/xlink" width="40" height="40" viewBox="0 0 40 40" version="1.1">
<g id="surface1">
<path style=" stroke:none;fill-rule:nonzero;fill:rgb(0%,0%,0%);fill-opacity:1;" d="M 0 32.492188 L 0 24.980469 L 17.421875 24.980469 L 17.421875 37.496094 L 22.5 37.496094 L 22.5 14.972656 L 25.503906 12.828125 C 27.15625 11.648438 29.609375 9.894531 30.957031 8.929688 C 32.304688 7.96875 34.871094 6.132812 36.660156 4.855469 C 38.449219 3.574219 39.933594 2.515625 39.957031 2.5 L 40 2.46875 L 40 40 L 0 40 Z M 15 32.492188 L 15 27.484375 L 2.5 27.484375 L 2.5 37.496094 L 15 37.496094 Z M 5 31.238281 L 5 29.988281 L 7.5 29.988281 L 7.5 32.492188 L 5 32.492188 Z M 10 31.238281 L 10 29.988281 L 12.5 29.988281 L 12.5 32.492188 L 10 32.492188 Z M 37.5 22.421875 C 37.5 14.128906 37.496094 7.34375 37.488281 7.34375 C 37.476562 7.34375 37.761719 7.140625 30.453125 12.363281 L 25 16.261719 L 25 37.496094 L 37.5 37.496094 Z M 27.5 31.238281 L 27.5 29.988281 L 30 29.988281 L 30 32.492188 L 27.5 32.492188 Z M 32.5 31.238281 L 32.5 29.988281 L 35 29.988281 L 35 32.492188 L 32.5 32.492188 Z M 27.5 26.234375 L 27.5 24.980469 L 30 24.980469 L 30 27.484375 L 27.5 27.484375 Z M 32.5 26.234375 L 32.5 24.980469 L 35 24.980469 L 35 27.484375 L 32.5 27.484375 Z M 27.5 21.226562 L 27.5 19.976562 L 30 19.976562 L 30 22.480469 L 27.5 22.480469 Z M 32.5 21.226562 L 32.5 19.976562 L 35 19.976562 L 35 22.480469 L 32.5 22.480469 Z M 32.503906 16.226562 L 32.511719 14.980469 L 33.753906 14.976562 L 35 14.96875 L 35 17.472656 L 32.5 17.472656 Z M 12.5 21.226562 L 12.5 19.976562 L 15 19.976562 L 15 22.480469 L 12.5 22.480469 Z M 7.503906 16.226562 L 7.511719 14.980469 L 8.753906 14.976562 L 10 14.96875 L 10 17.472656 L 7.5 17.472656 Z M 4.707031 11.601562 C 4.039062 11.179688 3.589844 10.832031 3.066406 10.328125 C 1.277344 8.613281 0.207031 6.328125 0.0390625 3.855469 C 0.0078125 3.429688 0.0234375 2.511719 0.0664062 2.152344 C 0.140625 1.515625 0.230469 1.050781 0.3125 0.890625 C 0.386719 0.746094 0.554688 0.578125 0.691406 0.511719 C 0.933594 0.394531 1.992188 0.171875 2.734375 0.0820312 C 3.460938 -0.0078125 4.582031 -0.0273438 5.28125 0.0390625 C 6.703125 0.167969 8.03125 0.503906 9.316406 1.066406 C 10.125 1.417969 11.285156 2.085938 11.234375 2.167969 C 11.230469 2.179688 10.878906 2.722656 10.457031 3.375 C 10.039062 4.023438 9.371094 5.058594 8.976562 5.671875 C 8.578125 6.285156 8.136719 6.972656 7.988281 7.195312 C 7.84375 7.421875 7.507812 7.941406 7.246094 8.347656 C 6.984375 8.753906 6.761719 9.085938 6.75 9.085938 C 6.714844 9.085938 6.285156 8.824219 6.125 8.707031 C 5.386719 8.160156 4.871094 7.289062 4.742188 6.367188 C 4.710938 6.128906 4.710938 5.625 4.742188 5.402344 C 4.8125 4.90625 5.046875 4.285156 5.285156 3.964844 C 5.390625 3.824219 5.703125 3.507812 5.875 3.367188 C 6.488281 2.867188 7.332031 2.527344 8.082031 2.480469 C 8.203125 2.476562 8.300781 2.464844 8.300781 2.457031 C 8.300781 2.4375 7.804688 2.253906 7.53125 2.171875 C 6.644531 1.902344 5.871094 1.777344 4.941406 1.757812 C 3.914062 1.734375 2.976562 1.867188 1.964844 2.175781 L 1.847656 2.214844 L 1.828125 2.347656 C 1.800781 2.605469 1.828125 3.644531 1.871094 4 C 2 4.980469 2.253906 5.84375 2.675781 6.707031 C 3.117188 7.617188 3.621094 8.328125 4.324219 9.039062 C 4.804688 9.519531 5.171875 9.820312 5.707031 10.175781 L 5.957031 10.339844 L 5.921875 10.394531 C 5.90625 10.421875 5.695312 10.746094 5.460938 11.113281 C 5.222656 11.480469 5.019531 11.78125 5.011719 11.78125 C 5 11.78125 4.863281 11.699219 4.707031 11.601562 Z M 22.5 8.710938 L 22.5 7.460938 L 23.746094 7.464844 L 24.992188 7.472656 L 25 9.964844 L 22.5 9.964844 Z M 17.5 6.210938 L 17.5 4.957031 L 18.746094 4.964844 L 19.992188 4.96875 L 20 7.460938 L 17.5 7.460938 Z M 12.5 3.707031 L 12.5 2.453125 L 13.746094 2.460938 L 14.992188 2.464844 L 15 4.957031 L 12.5 4.957031 Z M 12.5 3.707031 "/>
</g>
</svg>
