<?xml version="1.0" encoding="UTF-8"?>
<svg xmlns="http://www.w3.org/2000/svg" xmlns:xlink="http://www.w3.org/1999/xlink" width="40" height="40" viewBox="0 0 40 40" version="1.1">
<g id="surface1">
<path style=" stroke:none;fill-rule:evenodd;fill:rgb(0%,0%,0%);fill-opacity:1;" d="M 13.707031 0 C 11.226562 0 9.191406 2.035156 9.191406 4.515625 C 9.191406 5.910156 9.839844 7.167969 10.851562 7.996094 L 7.207031 15.523438 C 6.980469 15.484375 6.746094 15.464844 6.515625 15.464844 C 4.035156 15.464844 2 17.5 2 19.976562 C 2 22.457031 4.035156 24.492188 6.515625 24.492188 C 8.90625 24.492188 10.867188 22.589844 11 20.230469 C 11.019531 20.148438 11.027344 20.0625 11.027344 19.976562 C 11.027344 19.894531 11.019531 19.808594 11 19.726562 C 10.929688 18.492188 10.355469 17.382812 9.480469 16.605469 L 13.167969 8.992188 C 13.34375 9.011719 13.523438 9.027344 13.707031 9.027344 C 15.367188 9.027344 16.816406 8.113281 17.59375 6.761719 L 24 8.457031 C 24.335938 10.558594 26.140625 12.191406 28.316406 12.257812 L 30.835938 19.9375 C 29.710938 20.761719 28.972656 22.085938 28.972656 23.574219 C 28.972656 26.054688 31.007812 28.089844 33.488281 28.089844 C 35.878906 28.089844 37.839844 26.1875 37.976562 23.824219 C 37.992188 23.742188 38 23.660156 38 23.574219 C 38 23.492188 37.992188 23.40625 37.976562 23.324219 C 37.839844 20.964844 35.878906 19.0625 33.488281 19.0625 C 33.390625 19.0625 33.296875 19.070312 33.203125 19.074219 L 30.753906 11.617188 C 31.996094 10.863281 32.851562 9.53125 32.941406 8.003906 C 32.957031 7.917969 32.964844 7.835938 32.964844 7.75 C 32.964844 7.667969 32.957031 7.582031 32.941406 7.5 C 32.804688 5.140625 30.84375 3.238281 28.453125 3.238281 C 26.617188 3.238281 25.027344 4.355469 24.324219 5.9375 L 18.203125 4.320312 C 18.203125 4.300781 18.199219 4.28125 18.195312 4.261719 C 18.058594 1.902344 16.097656 0 13.707031 0 Z M 13.707031 2.515625 C 14.824219 2.515625 15.703125 3.398438 15.703125 4.515625 C 15.703125 5.632812 14.824219 6.507812 13.707031 6.507812 C 12.589844 6.507812 11.710938 5.632812 11.710938 4.515625 C 11.710938 3.398438 12.589844 2.515625 13.707031 2.515625 Z M 28.453125 5.753906 C 29.570312 5.753906 30.449219 6.632812 30.449219 7.75 C 30.449219 8.867188 29.570312 9.746094 28.453125 9.746094 C 27.335938 9.746094 26.457031 8.867188 26.457031 7.75 C 26.457031 6.632812 27.335938 5.753906 28.453125 5.753906 Z M 6.515625 17.980469 C 7.632812 17.980469 8.507812 18.859375 8.507812 19.976562 C 8.507812 21.09375 7.632812 21.972656 6.515625 21.972656 C 5.398438 21.972656 4.515625 21.09375 4.515625 19.976562 C 4.515625 18.859375 5.398438 17.980469 6.515625 17.980469 Z M 33.488281 21.578125 C 34.605469 21.578125 35.484375 22.457031 35.484375 23.574219 C 35.484375 24.691406 34.605469 25.570312 33.488281 25.570312 C 32.371094 25.570312 31.492188 24.691406 31.492188 23.574219 C 31.492188 22.457031 32.371094 21.578125 33.488281 21.578125 Z M 2 30.398438 L 2 40 L 38 40 L 38 30.398438 L 35.492188 30.398438 L 35.492188 37.558594 L 32.417969 37.558594 L 32.417969 32.46875 L 29.910156 32.46875 L 29.910156 37.558594 L 26.835938 37.558594 L 26.835938 32.46875 L 24.328125 32.46875 L 24.328125 37.558594 L 21.253906 37.558594 L 21.253906 30.398438 L 18.746094 30.398438 L 18.746094 37.558594 L 15.671875 37.558594 L 15.671875 32.46875 L 13.164062 32.46875 L 13.164062 37.558594 L 10.089844 37.558594 L 10.089844 32.46875 L 7.582031 32.46875 L 7.582031 37.558594 L 4.507812 37.558594 L 4.507812 30.398438 Z M 2 30.398438 "/>
</g>
</svg>
