<?xml version="1.0" encoding="UTF-8"?>
<svg xmlns="http://www.w3.org/2000/svg" xmlns:xlink="http://www.w3.org/1999/xlink" width="40" height="40" viewBox="0 0 40 40" version="1.1">
<g id="surface1">
<path style=" stroke:none;fill-rule:nonzero;fill:rgb(0%,0%,0%);fill-opacity:1;" d="M 5.914062 35.527344 C 5.734375 35.441406 5.628906 35.332031 5.542969 35.152344 C 5.425781 34.917969 5.421875 34.796875 5.421875 32.980469 C 5.421875 31.164062 5.425781 31.046875 5.542969 30.808594 C 5.71875 30.441406 6.019531 30.3125 6.683594 30.3125 L 7.199219 30.3125 L 7.199219 10.613281 L 6.664062 10.613281 C 6.003906 10.613281 5.71875 10.496094 5.539062 10.140625 C 5.425781 9.917969 5.421875 9.792969 5.421875 7.945312 C 5.421875 6.09375 5.425781 5.96875 5.539062 5.746094 C 5.617188 5.597656 5.742188 5.46875 5.894531 5.394531 C 6.113281 5.28125 6.238281 5.273438 8.089844 5.273438 C 9.941406 5.273438 10.066406 5.28125 10.285156 5.394531 C 10.640625 5.574219 10.761719 5.855469 10.761719 6.515625 L 10.761719 7.054688 L 30.457031 7.054688 L 30.457031 6.539062 C 30.457031 5.871094 30.589844 5.574219 30.957031 5.394531 C 31.195312 5.28125 31.308594 5.273438 33.128906 5.273438 C 34.945312 5.273438 35.0625 5.28125 35.300781 5.394531 C 35.484375 5.484375 35.585938 5.585938 35.675781 5.769531 C 35.792969 6.007812 35.796875 6.125 35.796875 7.945312 C 35.796875 9.761719 35.792969 9.878906 35.675781 10.117188 C 35.5 10.484375 35.199219 10.613281 34.535156 10.613281 L 34.019531 10.613281 L 34.019531 30.3125 L 34.554688 30.3125 C 35.214844 30.3125 35.5 30.429688 35.679688 30.785156 C 35.792969 31.003906 35.796875 31.132812 35.796875 32.980469 C 35.796875 34.832031 35.792969 34.957031 35.679688 35.179688 C 35.601562 35.328125 35.476562 35.457031 35.324219 35.53125 C 35.105469 35.644531 34.976562 35.652344 33.128906 35.652344 C 31.277344 35.652344 31.152344 35.644531 30.929688 35.53125 C 30.578125 35.351562 30.457031 35.070312 30.457031 34.40625 L 30.457031 33.871094 L 10.761719 33.871094 L 10.761719 34.386719 C 10.761719 35.054688 10.628906 35.351562 10.261719 35.53125 C 10.023438 35.644531 9.90625 35.652344 8.085938 35.652344 C 6.257812 35.652344 6.148438 35.644531 5.914062 35.527344 Z M 30.457031 31.554688 C 30.457031 30.585938 30.734375 30.3125 31.703125 30.3125 L 32.238281 30.3125 L 32.238281 10.613281 L 31.722656 10.613281 C 30.753906 10.613281 30.457031 10.316406 30.457031 9.347656 L 30.457031 8.832031 L 10.761719 8.832031 L 10.761719 9.371094 C 10.761719 10.03125 10.640625 10.3125 10.285156 10.492188 C 10.101562 10.585938 9.9375 10.613281 9.515625 10.613281 L 8.980469 10.613281 L 8.980469 30.3125 L 9.496094 30.3125 C 10.460938 30.3125 10.761719 30.609375 10.761719 31.578125 L 10.761719 32.089844 L 30.457031 32.089844 Z M 17.550781 29.300781 C 17.28125 29.171875 17.050781 28.824219 17.050781 28.566406 C 17.050781 28.3125 17.167969 28.089844 18.019531 26.78125 L 18.828125 25.535156 L 18.828125 15.0625 L 16.554688 15.0625 L 15.714844 15.886719 C 14.777344 16.8125 14.585938 16.921875 14.140625 16.789062 C 14.011719 16.75 13.847656 16.660156 13.777344 16.589844 C 13.503906 16.300781 13.488281 16.191406 13.488281 14.164062 C 13.488281 12.355469 13.496094 12.238281 13.613281 12 C 13.699219 11.816406 13.804688 11.714844 13.984375 11.625 C 14.234375 11.503906 14.296875 11.503906 20.609375 11.503906 C 26.921875 11.503906 26.980469 11.503906 27.230469 11.625 C 27.414062 11.714844 27.519531 11.816406 27.605469 12 C 27.722656 12.238281 27.730469 12.355469 27.730469 14.164062 C 27.730469 16.191406 27.714844 16.300781 27.4375 16.589844 C 27.371094 16.660156 27.207031 16.75 27.078125 16.789062 C 26.632812 16.921875 26.441406 16.8125 25.5 15.886719 L 24.664062 15.0625 L 22.390625 15.0625 L 22.390625 25.535156 L 23.199219 26.78125 C 24.050781 28.089844 24.167969 28.3125 24.167969 28.566406 C 24.167969 28.828125 23.933594 29.171875 23.664062 29.304688 C 23.429688 29.417969 23.296875 29.421875 20.605469 29.421875 C 17.902344 29.421875 17.78125 29.417969 17.550781 29.300781 Z M 17.550781 29.300781 "/>
</g>
</svg>
