<?xml version="1.0" encoding="UTF-8"?>
<svg xmlns="http://www.w3.org/2000/svg" xmlns:xlink="http://www.w3.org/1999/xlink" width="40" height="40" viewBox="0 0 40 40" version="1.1">
<g id="surface1">
<path style=" stroke:none;fill-rule:nonzero;fill:rgb(0%,0%,0%);fill-opacity:1;" d="M 34.367188 39.773438 C 34.03125 39.59375 33.910156 39.476562 33.734375 39.136719 C 33.296875 38.300781 33.503906 37.757812 34.714844 36.566406 L 35.527344 35.773438 L 22.785156 35.769531 C 14.242188 35.769531 9.878906 35.742188 9.539062 35.6875 C 8.179688 35.46875 7.097656 34.90625 6.097656 33.902344 C 5.09375 32.898438 4.53125 31.820312 4.3125 30.460938 C 4.257812 30.121094 4.230469 25.75 4.230469 17.191406 L 4.226562 4.425781 L 3.347656 5.285156 C 2.378906 6.234375 1.980469 6.457031 1.417969 6.382812 C 0.894531 6.3125 0.445312 5.992188 0.214844 5.53125 C -0.261719 4.582031 -0.0625 4.210938 2.007812 2.230469 C 3.390625 0.902344 3.679688 0.660156 4.171875 0.429688 C 5.285156 -0.0976562 6.453125 -0.0976562 7.566406 0.429688 C 8.058594 0.660156 8.347656 0.902344 9.730469 2.226562 C 11.796875 4.207031 11.996094 4.578125 11.523438 5.53125 C 11.292969 5.992188 10.839844 6.3125 10.320312 6.382812 C 9.742188 6.460938 9.363281 6.238281 8.308594 5.207031 L 7.351562 4.269531 L 7.351562 17.007812 C 7.351562 26.144531 7.378906 29.867188 7.441406 30.164062 C 7.695312 31.359375 8.640625 32.304688 9.835938 32.558594 C 10.132812 32.621094 13.851562 32.648438 22.980469 32.648438 L 35.714844 32.648438 L 34.816406 31.785156 C 33.503906 30.523438 33.285156 29.984375 33.734375 29.125 C 33.910156 28.789062 34.03125 28.667969 34.367188 28.492188 C 35.316406 27.996094 35.667969 28.183594 37.742188 30.285156 C 39.171875 31.734375 39.371094 31.964844 39.589844 32.453125 C 40.089844 33.554688 40.089844 34.707031 39.589844 35.8125 C 39.371094 36.300781 39.171875 36.53125 37.742188 37.980469 C 35.667969 40.078125 35.316406 40.265625 34.367188 39.773438 Z M 11.328125 26.570312 C 10.992188 26.394531 10.871094 26.277344 10.695312 25.9375 L 10.476562 25.523438 L 10.476562 15.171875 L 10.695312 14.753906 C 10.871094 14.417969 10.992188 14.296875 11.328125 14.121094 C 11.847656 13.847656 12.210938 13.84375 12.707031 14.101562 L 13.09375 14.296875 L 13.523438 14.160156 C 13.832031 14.058594 14.179688 14.023438 14.773438 14.027344 C 15.726562 14.039062 16.328125 14.199219 17.046875 14.644531 L 17.507812 14.925781 L 17.964844 14.644531 C 19.6875 13.582031 21.835938 13.832031 23.246094 15.261719 C 23.886719 15.910156 24.167969 16.394531 24.378906 17.230469 C 24.523438 17.789062 24.535156 18.101562 24.535156 21.671875 L 24.535156 25.507812 L 24.332031 25.917969 C 24.0625 26.460938 23.589844 26.746094 22.972656 26.746094 C 22.355469 26.746094 21.882812 26.460938 21.613281 25.917969 L 21.410156 25.507812 L 21.410156 21.769531 C 21.410156 17.632812 21.414062 17.675781 20.914062 17.316406 C 20.574219 17.074219 19.90625 17.074219 19.566406 17.316406 C 19.0625 17.675781 19.066406 17.632812 19.066406 21.773438 L 19.066406 25.523438 L 18.851562 25.9375 C 18.675781 26.277344 18.554688 26.394531 18.214844 26.570312 C 17.976562 26.699219 17.675781 26.789062 17.507812 26.789062 C 17.335938 26.789062 17.035156 26.699219 16.796875 26.570312 C 16.457031 26.394531 16.335938 26.277344 16.160156 25.9375 L 15.945312 25.523438 L 15.945312 21.773438 C 15.945312 17.632812 15.949219 17.675781 15.445312 17.316406 C 15.105469 17.074219 14.4375 17.074219 14.097656 17.316406 C 13.597656 17.675781 13.601562 17.632812 13.601562 21.773438 L 13.601562 25.523438 L 13.382812 25.9375 C 13.207031 26.277344 13.085938 26.394531 12.75 26.570312 C 12.507812 26.699219 12.210938 26.789062 12.039062 26.789062 C 11.867188 26.789062 11.570312 26.699219 11.328125 26.570312 Z M 37.75 26.351562 C 37.445312 26.203125 37.289062 26.054688 37.128906 25.785156 L 36.914062 25.421875 L 36.835938 4.179688 L 36.652344 3.878906 C 36.550781 3.714844 36.324219 3.488281 36.148438 3.371094 L 35.832031 3.164062 L 25.242188 3.125 L 14.65625 3.085938 L 14.292969 2.871094 C 14.023438 2.710938 13.875 2.554688 13.726562 2.25 C 13.464844 1.726562 13.46875 1.371094 13.738281 0.851562 C 13.917969 0.515625 14.035156 0.394531 14.375 0.21875 L 14.789062 0 L 25.265625 0 C 36.882812 0.00390625 36.320312 -0.0195312 37.421875 0.519531 C 38.222656 0.914062 39.085938 1.777344 39.480469 2.578125 C 40.019531 3.679688 39.996094 3.113281 40 14.773438 L 40 25.289062 L 39.78125 25.703125 C 39.605469 26.042969 39.484375 26.160156 39.148438 26.335938 C 38.628906 26.609375 38.273438 26.613281 37.75 26.351562 Z M 27.492188 18.949219 C 26.886719 18.734375 26.527344 18.277344 26.4375 17.617188 C 26.371094 17.121094 26.613281 16.644531 27.257812 16.023438 C 28.9375 14.410156 30.550781 12.410156 30.550781 11.953125 C 30.550781 11.800781 30.238281 11.558594 30.042969 11.558594 C 29.753906 11.558594 29.5625 11.796875 29.503906 12.242188 C 29.324219 13.609375 27.527344 14.066406 26.71875 12.949219 C 26.445312 12.570312 26.375 12.140625 26.480469 11.492188 C 26.949219 8.597656 30.511719 7.449219 32.585938 9.523438 C 33.390625 10.324219 33.808594 11.589844 33.601562 12.59375 C 33.4375 13.378906 32.914062 14.332031 32.058594 15.40625 L 31.636719 15.933594 L 32.058594 15.933594 C 32.710938 15.933594 33.253906 16.246094 33.535156 16.785156 C 33.660156 17.023438 33.75 17.324219 33.75 17.496094 C 33.75 17.664062 33.660156 17.964844 33.535156 18.207031 C 33.359375 18.542969 33.238281 18.664062 32.902344 18.839844 L 32.484375 19.058594 L 30.128906 19.054688 C 28.398438 19.050781 27.703125 19.023438 27.492188 18.949219 Z M 27.492188 18.949219 "/>
</g>
</svg>
