<?xml version="1.0" encoding="UTF-8"?>
<svg xmlns="http://www.w3.org/2000/svg" xmlns:xlink="http://www.w3.org/1999/xlink" width="40" height="40" viewBox="0 0 40 40" version="1.1">
<g id="surface1">
<path style=" stroke:none;fill-rule:nonzero;fill:rgb(0%,0%,0%);fill-opacity:1;" d="M 28.652344 35.386719 C 25.960938 32.757812 25.339844 32.460938 22.433594 32.429688 C 21.257812 32.417969 20.109375 32.398438 19.882812 32.386719 C 19.652344 32.375 19.191406 32.09375 18.859375 31.761719 C 18.378906 31.28125 18.253906 31.011719 18.253906 30.464844 C 18.253906 30.085938 18.378906 29.601562 18.53125 29.382812 C 18.929688 28.8125 20.265625 28.082031 21.589844 27.714844 C 22.230469 27.539062 22.78125 27.363281 22.816406 27.328125 C 22.855469 27.289062 22.398438 26.386719 21.796875 25.324219 C 17.984375 18.539062 17.898438 18.375 17.898438 17.734375 C 17.898438 17.214844 18.011719 17.007812 18.492188 16.640625 C 19.308594 16.019531 20.179688 16.03125 20.773438 16.675781 C 21.019531 16.945312 21.648438 17.882812 22.167969 18.765625 C 22.6875 19.644531 23.269531 20.589844 23.460938 20.867188 L 23.808594 21.367188 L 24.3125 20.886719 C 24.738281 20.480469 24.921875 20.417969 25.519531 20.5 C 26.105469 20.578125 26.296875 20.519531 26.625 20.171875 C 26.839844 19.941406 27.367188 19.617188 27.792969 19.457031 C 28.457031 19.203125 28.710938 19.191406 29.589844 19.375 C 30.335938 19.535156 30.746094 19.539062 31.109375 19.402344 C 32.421875 18.898438 33.265625 19.308594 34.511719 21.054688 C 35.609375 22.59375 35.976562 23.535156 36.394531 25.917969 C 36.617188 27.171875 37.101562 28.917969 37.636719 30.386719 C 38.335938 32.300781 38.472656 32.84375 38.296875 33.015625 C 38.046875 33.261719 30.945312 37.34375 30.773438 37.34375 C 30.710938 37.34375 29.757812 36.460938 28.652344 35.386719 Z M 10.34375 24.003906 C 4.414062 22.816406 0.566406 16.667969 2.074219 10.78125 C 2.585938 8.773438 3.375 7.410156 4.914062 5.867188 C 7.097656 3.683594 9.472656 2.675781 12.449219 2.675781 C 14.46875 2.675781 15.554688 2.917969 17.347656 3.777344 C 19.988281 5.035156 22.109375 7.605469 22.976562 10.585938 C 23.507812 12.410156 23.375 15.386719 22.683594 17.207031 L 22.515625 17.652344 L 22.007812 16.964844 C 21.105469 15.738281 20.613281 15.386719 19.78125 15.386719 C 18.832031 15.386719 17.648438 16.132812 17.242188 16.988281 C 16.867188 17.769531 17.082031 18.570312 18.183594 20.488281 C 18.613281 21.242188 18.964844 21.933594 18.964844 22.027344 C 18.964844 22.335938 16.125 23.671875 14.921875 23.925781 C 13.632812 24.199219 11.496094 24.238281 10.34375 24.003906 Z M 13.988281 16.453125 L 13.988281 11.742188 L 10.964844 11.742188 L 10.964844 21.164062 L 13.988281 21.164062 Z M 13.601562 9.488281 C 14.097656 9.175781 14.558594 8.160156 14.414062 7.707031 C 14.046875 6.570312 13.414062 6.054688 12.378906 6.054688 C 11.601562 6.054688 10.609375 7.046875 10.609375 7.824219 C 10.609375 8.835938 11.136719 9.5 12.210938 9.847656 C 12.550781 9.957031 13.074219 9.820312 13.601562 9.488281 Z M 13.601562 9.488281 "/>
</g>
</svg>
