<?xml version="1.0" encoding="UTF-8"?>
<svg xmlns="http://www.w3.org/2000/svg" xmlns:xlink="http://www.w3.org/1999/xlink" width="40" height="40" viewBox="0 0 40 40" version="1.1">
<g id="surface1">
<path style=" stroke:none;fill-rule:nonzero;fill:rgb(0%,0%,0%);fill-opacity:1;" d="M 17.558594 39.90625 C 12.867188 39.3125 8.761719 37.21875 5.421875 33.714844 C 2.804688 30.976562 1.179688 27.875 0.296875 23.949219 C -0.0976562 22.1875 -0.0976562 17.769531 0.296875 16.007812 C 1.238281 11.808594 2.863281 8.84375 5.859375 5.851562 C 8.851562 2.859375 11.820312 1.238281 16.023438 0.296875 C 17.789062 -0.0976562 22.210938 -0.0976562 23.976562 0.296875 C 28.179688 1.238281 31.148438 2.859375 34.140625 5.851562 C 37.136719 8.84375 38.761719 11.808594 39.703125 16.007812 C 40.097656 17.769531 40.097656 22.1875 39.703125 23.949219 C 38.761719 28.148438 37.136719 31.117188 34.140625 34.105469 C 31.144531 37.101562 28.054688 38.789062 24.007812 39.636719 C 22.433594 39.96875 19.128906 40.105469 17.558594 39.90625 Z M 22.863281 37.851562 C 32.730469 36.246094 39.488281 26.925781 37.890625 17.121094 C 36.285156 7.261719 26.953125 0.511719 17.136719 2.105469 C 7.269531 3.710938 0.511719 13.035156 2.109375 22.839844 C 3.523438 31.519531 11.03125 37.988281 19.820312 38.097656 C 20.609375 38.105469 21.976562 37.996094 22.863281 37.851562 Z M 20.445312 33.308594 C 19.019531 32.832031 17.148438 32.113281 16.285156 31.714844 C 14.472656 30.875 11.863281 29.359375 11.863281 29.148438 C 11.863281 29.015625 12.847656 27.179688 14.242188 24.714844 L 14.800781 23.730469 L 14.089844 24.300781 C 13.699219 24.613281 12.699219 25.554688 11.867188 26.398438 C 11.03125 27.242188 10.277344 27.929688 10.1875 27.929688 C 9.945312 27.929688 7.488281 25.691406 6.855469 24.894531 L 6.304688 24.199219 L 8.144531 22.816406 C 10.558594 21 12.542969 19.074219 13.867188 17.257812 C 14.851562 15.910156 14.972656 15.804688 15.324219 15.988281 C 15.738281 16.207031 26.570312 22.421875 26.691406 22.511719 C 26.730469 22.542969 26.394531 23.351562 25.941406 24.3125 C 24.460938 27.464844 23.667969 30.511719 23.667969 33.046875 C 23.667969 34.015625 23.621094 34.183594 23.355469 34.179688 C 23.179688 34.175781 21.875 33.78125 20.445312 33.308594 Z M 21.253906 18.320312 C 15.375 14.921875 15.394531 14.941406 16.160156 13.523438 C 16.746094 12.441406 17.308594 11.847656 17.753906 11.847656 C 17.953125 11.847656 20.472656 13.207031 23.351562 14.867188 C 29.34375 18.320312 29.257812 18.238281 28.425781 19.769531 C 27.828125 20.855469 27.351562 21.320312 26.820312 21.316406 C 26.609375 21.316406 24.105469 19.964844 21.253906 18.320312 Z M 23.816406 13.917969 L 22.265625 13 L 24.175781 9.6875 C 26.761719 5.207031 26.609375 5.417969 27.300781 5.417969 C 28.082031 5.417969 29.523438 6.335938 29.671875 6.925781 C 29.761719 7.28125 29.378906 8.078125 27.796875 10.832031 C 26.703125 12.730469 25.710938 14.410156 25.585938 14.5625 C 25.394531 14.800781 25.171875 14.722656 23.816406 13.917969 Z M 26.871094 6.628906 C 27.222656 6.199219 27.398438 6.117188 27.808594 6.199219 C 28.464844 6.332031 28.453125 6.210938 27.773438 5.859375 C 27.105469 5.515625 26.988281 5.585938 26.4375 6.675781 C 25.980469 7.574219 25.847656 8.09375 26.226562 7.492188 C 26.34375 7.308594 26.632812 6.917969 26.871094 6.628906 Z M 26.871094 6.628906 "/>
</g>
</svg>
